{"title":"Open Season: Scared Silly (2015) BRRRIP 1080P NO CINAVIA","uid":13738194,"size":1858069163,"categoryP":"video","categoryS":"hd___movies","magnet":"?xt=urn:btih:18eb7289558cac2231ba4e6cd5930ef40ab2b138&amp;dn=Open+Season%3A+Scared+Silly+%282015%29+BRRRIP+1080P+NO+CINAVIA&amp;tr=udp%3A%2F%2Ftracker.leechers-paradise.org%3A6969&amp;tr=udp%3A%2F%2Fzer0day.ch%3A1337&amp;tr=udp%3A%2F%2Fopen.demonii.com%3A1337&amp;tr=udp%3A%2F%2Ftracker.coppersurfer.tk%3A6969&amp;tr=udp%3A%2F%2Fexodus.desync.com%3A6969","seeders":0,"leechers":0,"uploader":"jmanwf","files":4,"time":1457055627,"description":"Storyline\r\n\r\nOPEN SEASON: SCARED SILLY opens with Elliot telling a campfire story about the legend of the Wailing Wampus Werewolf that lives in Timberline National Forest. Domesticated Boog is terrified by the story and decides to &quot;chicken out&quot; of their annual summer camping trip until he knows the werewolf is gone. Determined to help Boog overcome his fears, Elliot and their woodland friends band together to scare the fear out of Boog and uncover the mystery of the Wailing Wampus Werewolf.\r\n\r\n\r\n\r\nVideo\r\nID : 1\r\nFormat : AVC\r\nFormat/Info : Advanced Video Codec\r\nFormat profile :   \r\nFormat settings, CABAC : Yes\r\nFormat settings, ReFrames : 4 frames\r\nCodec ID : avc1\r\nCodec ID/Info : Advanced Video Coding\r\nDuration : 1h 24mn\r\nBit rate : 2 500 Kbps\r\nWidth : 1 920 pixels\r\nHeight : 1 080 pixels\r\nDisplay aspect ratio : 16:9\r\nFrame rate mode : Constant\r\nFrame rate : 23.976 fps\r\nColor space : YUV\r\nChroma subsampling : 4:2:0\r\nBit depth : 8 bits\r\nScan type : Progressive\r\nBits/(Pixel*Frame) : 0.050\r\nStream size : 1.48 GiB (92%)\r\nWriting library : x264 core 148 r2597M e86f3a1\r\nEncoded date : UTC 2016-02-24 11:39:15\r\nTagged date : UTC 2016-02-24 11:39:15\r\n\r\nAudio\r\nID : 2\r\nFormat : AAC\r\nFormat/Info : Advanced Audio Codec\r\nFormat profile : LC\r\nCodec ID : 40\r\nDuration : 1h 24mn\r\nBit rate mode : Variable\r\nBit rate : 224 Kbps\r\nMaximum bit rate : 896 Kbps\r\nChannel(s) : 2 channels\r\nChannel(s)_Original : 6 channels\r\nChannel positions : Front: L C R, Side: L R, LFE\r\nSampling rate : 48.0 KHz\r\nCompression mode : Lossy\r\nStream size : 136 MiB (8%)\r\nLanguage : English\r\nEncoded date : UTC 2016-02-24 11:39:15\r\nTagged date : UTC 2016-02-24 11:39:15\r\n\r\n \nhttp://s28.postimg.org/t3vb9ljd9/image.jpg\r\n\r\n\r\n\r\n\r\n \nhttp://s28.postimg.org/89iyrrozx/image.jpg","torrent":{"xt":"urn:btih:18eb7289558cac2231ba4e6cd5930ef40ab2b138","amp;dn":"Open+Season%3A+Scared+Silly+%282015%29+BRRRIP+1080P+NO+CINAVIA","amp;tr":["udp%3A%2F%2Ftracker.leechers-paradise.org%3A6969","udp%3A%2F%2Fzer0day.ch%3A1337","udp%3A%2F%2Fopen.demonii.com%3A1337","udp%3A%2F%2Ftracker.coppersurfer.tk%3A6969","udp%3A%2F%2Fexodus.desync.com%3A6969"],"infoHash":"18eb7289558cac2231ba4e6cd5930ef40ab2b138","infoHashBuffer":{"type":"Buffer","data":[24,235,114,137,85,140,172,34,49,186,78,108,213,147,14,244,10,178,177,56]},"announce":[],"urlList":[]}}